<?xml version="1.0" encoding="UTF-8"?>
<svg xmlns="http://www.w3.org/2000/svg" xmlns:xlink="http://www.w3.org/1999/xlink" width="3000" height="3000" viewBox="0 0 3000 3000">
<path fill-rule="nonzero" fill="rgb(0%, 0%, 0%)" fill-opacity="1" d="M 1227.878906 701.429688 C 1227.878906 585.648438 1321.738281 491.789062 1437.519531 491.789062 C 1553.300781 491.789062 1647.160156 585.648438 1647.160156 701.429688 C 1647.160156 817.210938 1553.300781 911.070312 1437.519531 911.070312 C 1321.738281 911.070312 1227.878906 817.210938 1227.878906 701.429688 "/>
<path fill-rule="nonzero" fill="rgb(0%, 0%, 0%)" fill-opacity="1" d="M 1204.628906 1078.859375 C 1204.628906 1045.96875 1217.691406 1014.421875 1240.949219 991.171875 C 1264.199219 967.910156 1295.75 954.851562 1328.640625 954.851562 L 1573.699219 954.851562 C 1606.589844 954.851562 1638.140625 967.910156 1661.390625 991.171875 C 1684.648438 1014.421875 1697.71875 1045.96875 1697.71875 1078.859375 L 1697.71875 1628.800781 C 1697.71875 1661.691406 1684.648438 1693.230469 1661.390625 1716.488281 C 1638.140625 1739.738281 1606.589844 1752.808594 1573.699219 1752.808594 L 1328.640625 1752.808594 C 1295.75 1752.808594 1264.199219 1739.738281 1240.949219 1716.488281 C 1217.691406 1693.230469 1204.628906 1661.691406 1204.628906 1628.800781 L 1204.628906 1078.859375 "/>
<path fill="none" stroke-width="2278.78" stroke-linecap="round" stroke-linejoin="round" stroke="rgb(0%, 0%, 0%)" stroke-opacity="1" stroke-miterlimit="10" d="M 13215.78125 13560.195312 L 13215.78125 5924.023438 " transform="matrix(0.1, 0, 0, -0.1, 0, 3000)"/>
<path fill="none" stroke-width="2278.78" stroke-linecap="round" stroke-linejoin="round" stroke="rgb(0%, 0%, 0%)" stroke-opacity="1" stroke-miterlimit="10" d="M 15855.78125 13560.195312 L 15855.78125 5924.023438 " transform="matrix(0.1, 0, 0, -0.1, 0, 3000)"/>
<path fill-rule="nonzero" fill="rgb(0%, 0%, 0%)" fill-opacity="1" d="M 1614.648438 961.589844 C 1582.089844 962.078125 1552.269531 979.910156 1536.421875 1008.351562 C 1511.910156 1052.328125 1527.679688 1107.839844 1571.660156 1132.351562 L 1806.851562 1263.441406 C 1829.039062 1275.808594 1855.390625 1278.351562 1879.550781 1270.460938 L 2125.21875 1190.148438 L 2125.21875 1006.019531 C 2113.03125 1004.960938 2100.738281 1006.359375 2089.101562 1010.148438 L 1860.78125 1084.800781 L 1660.410156 973.109375 C 1649.949219 967.28125 1638.449219 963.570312 1626.558594 962.191406 C 1622.609375 961.730469 1618.628906 961.53125 1614.648438 961.589844 Z M 2149.921875 1011.761719 L 2149.921875 1181.949219 C 2154.828125 1180.078125 2159.570312 1177.78125 2164.078125 1175.089844 L 2164.078125 1018.710938 C 2159.570312 1015.988281 2154.839844 1013.671875 2149.921875 1011.761719 Z M 2188.78125 1040.339844 L 2188.78125 1153.511719 C 2207.839844 1129.53125 2213.578125 1097.589844 2204.070312 1068.46875 C 2200.671875 1058.269531 2195.5 1048.738281 2188.78125 1040.339844 "/>
<path fill="none" stroke-width="1823.02" stroke-linecap="round" stroke-linejoin="round" stroke="rgb(0%, 0%, 0%)" stroke-opacity="1" stroke-miterlimit="10" d="M 12727.8125 19472.695312 L 10545.195312 17189.882812 L 9775.46875 14679.414062 " transform="matrix(0.1, 0, 0, -0.1, 0, 3000)"/>
<path fill-rule="nonzero" fill="rgb(0%, 0%, 0%)" fill-opacity="1" d="M 2140.28125 2233.335938 C 2140.28125 2233.703125 2140.421875 2234.054688 2140.679688 2234.316406 C 2140.941406 2234.574219 2141.289062 2234.722656 2141.660156 2234.722656 L 2177.75 2234.722656 C 2178.121094 2234.722656 2178.46875 2234.574219 2178.730469 2234.316406 C 2178.988281 2234.054688 2179.140625 2233.703125 2179.140625 2233.335938 L 2179.140625 646.21875 C 2179.140625 645.851562 2178.988281 645.5 2178.730469 645.238281 C 2178.46875 644.980469 2178.121094 644.828125 2177.75 644.828125 L 2141.660156 644.828125 C 2141.289062 644.828125 2140.941406 644.980469 2140.679688 645.238281 C 2140.421875 645.5 2140.28125 645.851562 2140.28125 646.21875 L 2140.28125 2233.335938 "/>
<path fill-rule="nonzero" fill="rgb(0%, 0%, 0%)" fill-opacity="1" d="M 2012.589844 2334.808594 C 2012.589844 2335.574219 2013.210938 2336.195312 2013.96875 2336.195312 L 2305.21875 2336.195312 C 2305.980469 2336.195312 2306.601562 2335.574219 2306.601562 2334.808594 L 2306.601562 2232.984375 C 2306.601562 2232.21875 2305.980469 2231.597656 2305.21875 2231.597656 L 2013.96875 2231.597656 C 2013.210938 2231.597656 2012.589844 2232.21875 2012.589844 2232.984375 L 2012.589844 2334.808594 "/>
<path fill="none" stroke-width="185.284" stroke-linecap="round" stroke-linejoin="round" stroke="rgb(0%, 0%, 0%)" stroke-opacity="1" stroke-miterlimit="10" d="M 20125.898438 6651.914062 C 20125.898438 6644.257812 20132.109375 6638.046875 20139.6875 6638.046875 L 23052.1875 6638.046875 C 23059.804688 6638.046875 23066.015625 6644.257812 23066.015625 6651.914062 L 23066.015625 7670.15625 C 23066.015625 7677.8125 23059.804688 7684.023438 23052.1875 7684.023438 L 20139.6875 7684.023438 C 20132.109375 7684.023438 20125.898438 7677.8125 20125.898438 7670.15625 Z M 20125.898438 6651.914062 " transform="matrix(0.1, 0, 0, -0.1, 0, 3000)"/>
<path fill-rule="nonzero" fill="rgb(0%, 0%, 0%)" fill-opacity="1" d="M 1936.140625 2486.753906 C 1936.140625 2494.066406 1939.050781 2501.085938 1944.21875 2506.261719 C 1949.390625 2511.433594 1956.410156 2514.339844 1963.730469 2514.339844 L 2346.460938 2514.339844 C 2353.78125 2514.339844 2360.789062 2511.433594 2365.96875 2506.261719 C 2371.140625 2501.085938 2374.050781 2494.066406 2374.050781 2486.753906 L 2374.050781 2324.640625 C 2374.050781 2317.324219 2371.140625 2310.308594 2365.96875 2305.132812 C 2360.789062 2299.960938 2353.78125 2297.050781 2346.460938 2297.050781 L 1963.730469 2297.050781 C 1956.410156 2297.050781 1949.390625 2299.960938 1944.21875 2305.132812 C 1939.050781 2310.308594 1936.140625 2317.324219 1936.140625 2324.640625 L 1936.140625 2486.753906 "/>
<path fill="none" stroke-width="185.284" stroke-linecap="round" stroke-linejoin="round" stroke="rgb(0%, 0%, 0%)" stroke-opacity="1" stroke-miterlimit="10" d="M 19361.40625 5132.460938 C 19361.40625 5059.335938 19390.507812 4989.140625 19442.1875 4937.382812 C 19493.90625 4885.664062 19564.101562 4856.601562 19637.304688 4856.601562 L 23464.609375 4856.601562 C 23537.8125 4856.601562 23607.890625 4885.664062 23659.6875 4937.382812 C 23711.40625 4989.140625 23740.507812 5059.335938 23740.507812 5132.460938 L 23740.507812 6753.59375 C 23740.507812 6826.757812 23711.40625 6896.914062 23659.6875 6948.671875 C 23607.890625 7000.390625 23537.8125 7029.492188 23464.609375 7029.492188 L 19637.304688 7029.492188 C 19564.101562 7029.492188 19493.90625 7000.390625 19442.1875 6948.671875 C 19390.507812 6896.914062 19361.40625 6826.757812 19361.40625 6753.59375 Z M 19361.40625 5132.460938 " transform="matrix(0.1, 0, 0, -0.1, 0, 3000)"/>
<path fill-rule="nonzero" fill="rgb(0%, 0%, 0%)" fill-opacity="1" d="M 783.152344 1714.960938 C 783.152344 1707.640625 786.058594 1700.628906 791.234375 1695.449219 C 796.40625 1690.28125 803.425781 1687.371094 810.742188 1687.371094 L 1106.550781 1687.371094 C 1121.789062 1687.371094 1134.140625 1699.71875 1134.140625 1714.960938 L 1134.140625 2018.90625 C 1134.140625 2034.144531 1121.789062 2046.496094 1106.550781 2046.496094 L 810.742188 2046.496094 C 803.425781 2046.496094 796.40625 2043.589844 791.234375 2038.414062 C 786.058594 2033.242188 783.152344 2026.222656 783.152344 2018.90625 L 783.152344 1714.960938 "/>
<path fill="none" stroke-width="260.036" stroke-linecap="round" stroke-linejoin="round" stroke="rgb(0%, 0%, 0%)" stroke-opacity="1" stroke-miterlimit="10" d="M 7950.195312 12972.8125 C 8084.101562 13806.289062 8785.546875 14418.984375 9594.257812 14408.789062 C 10403.007812 14398.710938 11071.484375 13768.789062 11161.210938 12932.5 " transform="matrix(0.1, 0, 0, -0.1, 0, 3000)"/>
</svg>
